<?xml version="1.0" standalone="no"?><!DOCTYPE svg PUBLIC "-//W3C//DTD SVG 1.1//EN" "http://www.w3.org/Graphics/SVG/1.1/DTD/svg11.dtd"><svg t="1712388382177" class="icon" viewBox="0 0 1024 1024" version="1.1" xmlns="http://www.w3.org/2000/svg" p-id="6041" xmlns:xlink="http://www.w3.org/1999/xlink" width="20" height="20"><path d="M112.64 788.2752h179.2l225.28 168.96c15.36 10.24 35.84 20.48 56.32 20.48 51.2 0 87.04-40.96 87.04-87.04v-737.28c0-20.48-10.24-40.96-20.48-61.44-30.72-35.84-87.04-40.96-122.88-5.12l-220.16 199.68H112.64c-51.2 0-87.04 40.96-87.04 87.04v327.68c0 46.08 40.96 87.04 87.04 87.04z m686.08 66.56l30.72-20.48c163.84-102.4 215.04-317.44 112.64-481.28-35.84-56.32-87.04-102.4-143.36-133.12h-5.12v5.12c61.44 30.72 107.52 71.68 143.36 128 102.4 163.84 51.2 373.76-112.64 476.16l-25.6 25.6c-5.12-5.12-5.12-5.12 0 0z m0-174.08l15.36-10.24c76.8-51.2 92.16-153.6 40.96-230.4-15.36-20.48-35.84-35.84-56.32-51.2h-5.12v5.12c20.48 10.24 40.96 25.6 56.32 46.08 51.2 71.68 30.72 168.96-40.96 220.16l-10.24 20.48c-5.12 0-5.12 0 0 0 0 0 0 5.12 0 0z" fill="#EDF7FF" p-id="6042"></path><path d="M568.32 1003.3152c-25.6 0-51.2-10.24-71.68-25.6l-215.04-163.84H112.64c-61.44 0-112.64-51.2-112.64-112.64v-327.68c0-61.44 51.2-112.64 112.64-112.64h168.96l209.92-189.44c46.08-40.96 117.76-40.96 158.72 10.24 20.48 20.48 30.72 46.08 30.72 76.8v737.28c5.12 56.32-46.08 107.52-112.64 107.52z m-455.68-691.2c-30.72 0-61.44 25.6-61.44 61.44v327.68c0 35.84 30.72 61.44 61.44 61.44h189.44l230.4 174.08c10.24 10.24 25.6 15.36 35.84 15.36 35.84 0 61.44-30.72 61.44-61.44v-737.28c0-15.36-5.12-30.72-15.36-40.96-25.6-25.6-61.44-25.6-87.04-5.12l-220.16 204.8H112.64z m691.2 568.32l-25.6-5.12-10.24-20.48 5.12-20.48 40.96-25.6c148.48-92.16 194.56-286.72 102.4-440.32-30.72-51.2-76.8-92.16-133.12-117.76l-25.6-10.24 10.24-25.6 15.36-15.36 15.36-5.12 10.24 5.12c66.56 30.72 117.76 81.92 158.72 138.24 51.2 87.04 71.68 184.32 46.08 281.6s-81.92 179.2-168.96 235.52l-40.96 25.6z m-10.24-163.84l-25.6-30.72 5.12-25.6 25.6-20.48c61.44-40.96 76.8-128 30.72-184.32-10.24-15.36-25.6-30.72-46.08-40.96l-10.24-5.12-5.12-15.36 5.12-10.24c5.12-15.36 25.6-20.48 35.84-10.24 25.6 15.36 46.08 35.84 66.56 56.32 61.44 87.04 40.96 204.8-46.08 266.24l-35.84 20.48z" fill="#57AFFE" p-id="6043"></path></svg>